<svg width="259" height="259" viewBox="0 0 259 259" fill="none" xmlns="http://www.w3.org/2000/svg">
<path d="M223.178 129.427C223.178 181.027 181.348 222.858 129.746 222.858C78.1463 222.858 36.3143 181.027 36.3143 129.427C36.3143 77.8261 78.1463 35.9954 129.746 35.9954C181.348 35.9954 223.178 77.8261 223.178 129.427Z" fill="#236840"/>
<path d="M133.833 192.358L133.991 189.971H139.348V187.111H131.18L130.493 195.44C130.493 195.44 132.013 195.042 133.857 195.147C135.471 195.236 136.977 196.006 137.025 197.372C137.067 198.607 135.815 199.294 134.685 199.499C133.467 199.719 131.817 199.434 131.024 199.11L130.34 201.787C131.299 202.288 133.64 202.539 135.155 202.29C138.513 201.744 140.188 199.902 140.188 197.106C140.188 194.799 138.5 192.196 133.833 192.358Z" fill="white"/>
<path d="M147.372 196.466C147.372 196.466 151.951 193.21 151.951 190.613C151.951 188.553 150.203 186.957 147.458 186.957C145.49 186.957 143.602 187.81 142.291 188.913L143.74 191.429C144.795 190.423 146.112 189.827 147.178 189.827C148.166 189.827 148.748 190.321 148.726 191.053C148.666 192.759 142.75 196.925 142.75 196.925L142.506 199.309H152.308L152.699 196.466H147.372Z" fill="white"/>
<path d="M121.992 194.161C120.688 194.161 120.076 193.085 120.076 191.927C120.076 190.533 120.803 189.439 122.001 189.439C123.353 189.439 124.101 190.708 124.083 191.777C124.101 192.879 123.46 194.161 121.992 194.161ZM121.967 186.677C118.972 186.691 116.908 189.048 116.908 191.909C116.908 194.553 118.611 196.692 121.239 196.692C122.705 196.692 123.953 196.121 124.588 195.211C124.755 197.304 123.819 199.055 121.644 199.54C120.687 199.753 119.339 199.601 118.645 199.307L117.964 201.984C119.104 202.487 121.028 202.611 122.455 202.249C126.093 201.331 127.64 198.453 127.64 194.127C127.64 189.971 125.732 186.656 121.967 186.677Z" fill="white"/>
<path d="M129.427 2.68978C59.5443 2.68978 2.68832 59.5431 2.68832 129.427C2.68832 199.31 59.5443 256.163 129.427 256.163C199.31 256.163 256.166 199.31 256.166 129.427C256.166 59.5431 199.31 2.68978 129.427 2.68978ZM129.427 258.256C58.391 258.256 0.597656 200.464 0.597656 129.427C0.597656 58.3898 58.391 0.596441 129.427 0.596441C200.463 0.596441 258.258 58.3898 258.258 129.427C258.258 200.464 200.463 258.256 129.427 258.256Z" fill="#236840"/>
<path d="M129.427 103.94C129.427 103.94 151.375 124.192 180.359 141.424L180.367 122.515C148.666 102.458 129.427 83.0671 129.427 83.0671C129.427 83.0671 110.187 102.458 78.4857 122.515L78.4937 141.424C107.478 124.192 129.427 103.94 129.427 103.94Z" fill="white"/>
<path d="M129.427 70.1826C129.427 70.1826 146.732 87.6413 167.896 101.123L167.902 82.904C144.475 66.06 129.427 49.308 129.427 49.308C129.427 49.308 114.378 66.06 90.951 82.904L90.9564 101.123C112.119 87.6413 129.427 70.1826 129.427 70.1826Z" fill="white"/>
<path d="M129.427 161.642C121.882 155.606 107.271 155.226 107.271 155.226L129.427 137.699L151.582 155.226C151.582 155.226 136.971 155.606 129.427 161.642ZM196.822 156.811H182.534C157.432 143.164 129.427 116.826 129.427 116.826C129.427 116.826 101.42 143.164 76.3191 156.811H62.0311L53.5564 171.508C53.5564 171.508 59.1977 174.514 70.6991 173.139C74.9351 172.632 84.7097 170.526 95.8324 170.192C104.063 169.947 114.355 171.3 119.531 176.472L129.427 176.467L139.32 176.472C144.498 171.3 154.79 169.947 163.02 170.192C174.143 170.526 183.916 172.632 188.154 173.139C199.655 174.514 205.296 171.508 205.296 171.508L196.822 156.811Z" fill="white"/>
<path d="M38.5 190.341L36.164 190.443C36.164 190.443 36.232 191.322 37.2453 192.557C37.3613 192.702 37.5413 192.903 37.7586 193.146L35.1293 194.822C34.0506 194.254 32.7613 192.947 32.0653 191.855C29.9373 188.518 30.6906 185.862 33.4426 184.105C36.236 182.325 39.2613 183.149 41.1186 186.058C42.1293 187.646 42.628 189.75 42.336 191.318L44.9306 191.531C45.248 189.498 44.6373 186.886 43.2066 184.726C40.1293 180.077 35.744 179.353 31.972 181.757C28.2 184.159 26.7973 188.369 29.7946 193.07C31.1093 195.134 33.2493 196.946 35.1173 197.641L40.8306 193.997L39.5586 192.001L38.5 190.341Z" fill="#236840"/>
<path d="M27.1562 136.647L27.1455 136.537L27.0869 135.873C27.0869 135.873 26.4215 136.097 26.2815 136.725L11.7869 137.99L12.0242 140.722L27.3962 139.379L27.1562 136.647Z" fill="#236840"/>
<path d="M30.474 156.175L30.4447 156.069L30.262 155.427C30.262 155.427 29.65 155.773 29.6273 156.417L15.6313 160.393L16.3833 163.031L31.2233 158.814L30.474 156.175Z" fill="#236840"/>
<path d="M28.8372 149.167L28.8159 149.058L28.6999 148.402C28.6999 148.402 28.0572 148.684 27.9719 149.32L26.4012 149.598L25.5786 149.744L18.4799 150.998C17.0479 151.251 15.8399 150.512 15.5826 149.056C15.3652 147.84 15.8359 146.535 16.7599 145.319L14.5919 144.164C13.4412 145.482 12.7052 147.34 13.0759 149.426C13.6359 152.592 15.7652 154.263 18.8932 153.71L29.3119 151.867L28.8372 149.167Z" fill="#236840"/>
<path d="M32.095 161.983C32.095 161.983 31.5283 162.399 31.5843 163.04L18.1656 168.675L19.2296 171.2L28.9136 167.135L33.451 165.211L32.095 161.983Z" fill="#236840"/>
<path d="M36.8334 173.276L26.5667 177.586L25.4947 178.036C25.4947 178.036 26.6 177.305 27.544 175.38C29.1387 172.025 31.1174 168.8 32.336 166.909C30.7374 167.152 28.4307 167.96 26.9174 170.458C25.648 172.698 23.9987 175.872 22.6414 179.337L23.6654 181.778L37.8974 175.805L36.8334 173.276Z" fill="#236840"/>
<path d="M15.6915 109.946L16.6221 104.842L20.6501 105.578L19.7181 110.682C19.4008 112.528 18.5755 113.699 17.2448 113.456C15.8261 113.196 15.3315 111.786 15.6915 109.946ZM20.7848 113.7C20.8955 115.423 21.9955 116.656 23.6635 116.962C26.0048 117.39 27.8248 115.658 28.4141 112.427L29.5168 106.384L29.5181 106.39C29.7248 105.234 29.9421 104.38 29.9421 104.38C29.9421 104.38 27.4421 104.367 26.3101 110.147C26.1861 110.824 26.0741 111.444 26.0061 111.83C25.7448 113.33 24.8795 114.296 23.6541 114.072C22.3901 113.842 21.8755 112.623 22.1488 111.126L23.0835 106.022L26.4835 106.642C27.0781 104.892 28.1248 104.155 28.1248 104.155L27.0675 103.962L14.6848 101.699L13.1981 109.848C12.5621 113.318 13.7541 115.755 16.3568 116.231C18.3755 116.599 20.0501 115.65 20.7848 113.7Z" fill="#236840"/>
<path d="M14.3084 122.619L18.3124 122.768L17.9778 131.701L20.4471 131.793L20.7818 122.861L24.3124 122.993C24.3378 122.844 24.3738 122.703 24.4071 122.565C24.4164 122.532 24.4258 122.497 24.4351 122.465C24.4684 122.339 24.5031 122.217 24.5444 122.103C24.5471 122.097 24.5484 122.091 24.5511 122.085C24.5938 121.96 24.6378 121.843 24.6831 121.731C24.6924 121.712 24.7018 121.695 24.7098 121.675C24.7551 121.568 24.8004 121.467 24.8471 121.371C25.2098 120.651 25.5831 120.297 25.5831 120.297L24.8911 120.271L24.5138 120.257L20.8871 120.121L18.4138 120.029L14.4098 119.879L11.9404 119.787L11.8364 122.527L11.4578 132.589L13.9311 132.681L14.3084 122.619Z" fill="#236840"/>
<path d="M27.3059 121.844C27.3485 120.912 27.4192 120.26 27.4192 120.26C27.4192 120.26 24.9565 120.604 24.6592 126.465L24.4219 132.803L26.8899 132.895L27.3059 121.844Z" fill="#236840"/>
<path d="M135.053 232.194L121.583 232.05L121.559 234.52L126.92 234.579L126.781 247.539L129.524 247.567L129.664 234.61L135.025 234.666L135.053 232.194Z" fill="#236840"/>
<path d="M70.3464 222.7C68.505 225.383 65.6344 225.861 63.0557 224.119C60.5064 222.34 59.9304 219.464 61.769 216.784L61.7264 216.755C61.7264 216.755 61.7677 216.784 61.769 216.784C63.609 214.107 66.5024 213.611 69.0797 215.349C71.6304 217.128 72.1864 220.02 70.3464 222.7ZM70.5397 213.227C66.721 210.609 62.2077 211.249 59.485 215.216C56.7624 219.18 57.7837 223.623 61.597 226.245C65.4157 228.863 69.909 228.235 72.6317 224.271C75.3557 220.303 74.3517 215.847 70.5397 213.227Z" fill="#236840"/>
<path d="M162.94 226.591C162.94 226.591 161.405 230.508 160.571 234.844C157.515 231.659 154.095 229.201 154.095 229.201L151.304 230.025C151.304 230.025 156.079 233.533 159.955 237.607L161.573 243.085L162.888 242.697L164.201 242.309L162.583 236.829C163.628 231.305 165.732 225.768 165.732 225.768L162.94 226.591Z" fill="#236840"/>
<path d="M110.467 234.679C110.627 233.738 111.961 233.269 113.162 233.475C114.335 233.673 115.642 234.165 117.465 235.657L118.974 233.458L119.474 232.726C118.889 232.519 118.425 232.758 118.254 232.867C117.039 231.961 115.499 231.302 113.829 231.015C110.415 230.434 107.841 231.757 107.386 234.429C106.458 239.879 115.106 239.482 114.562 242.678C114.382 243.753 112.91 244.303 111.475 244.057C109.842 243.779 107.863 242.61 106.535 240.942L104.973 243.11C106.351 244.858 108.569 246.145 111.003 246.558C114.351 247.127 117.111 245.883 117.602 243.014C118.557 237.522 109.938 237.79 110.467 234.679Z" fill="#236840"/>
<path d="M84.0611 235.662L84.0598 235.666C84.0598 235.649 84.0571 235.636 84.0571 235.622C84.0465 235.421 84.0371 235.221 84.0331 235.018C83.8558 232.694 82.8278 232.206 82.8278 232.206C83.4931 232.373 84.0718 232.412 84.0718 232.412C85.9185 232.633 87.7611 231.713 88.7411 229.832C90.2078 227.009 88.8878 224.217 85.4771 222.444L80.7491 219.985H80.7505C79.7038 219.449 78.9545 218.989 78.9545 218.989C78.9545 218.989 78.2118 221.361 83.3745 224.138L83.9651 224.445C83.9651 224.445 83.9665 224.445 83.9665 224.446L84.3358 224.637C86.4771 225.752 87.1171 227.204 86.3478 228.689C85.5851 230.154 83.9745 230.358 81.9171 229.292L77.8958 227.198L80.0945 222.966C78.7171 221.968 78.2731 220.86 78.2105 220.689L78.1985 220.673L71.9038 232.782L74.3358 234.045L76.7558 229.394L80.9358 231.568C81.1118 231.657 81.4105 231.784 81.5771 231.846C81.2931 235.056 81.6891 237.866 81.6891 237.866L84.4291 239.294C84.4291 239.294 84.1691 237.672 84.0611 235.662Z" fill="#236840"/>
<path d="M150.855 242.635L150.857 242.639C150.846 242.626 150.837 242.614 150.827 242.604C150.706 242.446 150.583 242.287 150.458 242.124C148.977 240.33 147.855 240.522 147.855 240.522C148.494 240.274 148.989 239.972 148.989 239.972C150.622 239.09 151.603 237.274 151.317 235.172C150.886 232.019 148.199 230.5 144.386 231.019L139.107 231.736C137.943 231.899 137.067 231.958 137.067 231.958C137.067 231.958 137.829 234.326 143.651 233.615L144.309 233.526L144.721 233.47C147.114 233.146 148.475 233.962 148.701 235.618C148.923 237.258 147.725 238.352 145.429 238.664L140.938 239.275L140.293 234.55C138.595 234.527 137.593 233.879 137.439 233.774L137.422 233.77L139.261 247.291L141.978 246.923L141.271 241.726L145.939 241.091C146.138 241.062 146.451 240.995 146.622 240.948C148.242 243.736 150.189 245.804 150.189 245.804L153.251 245.387C153.251 245.387 152.103 244.214 150.855 242.635Z" fill="#236840"/>
<path d="M53.8398 202.912C52.7278 201.44 52.7051 200.159 52.7051 200.159L52.7038 200.158L52.2131 200.656L49.4038 203.51L47.6691 205.274L43.1238 209.89L45.0771 211.815L49.6238 207.196L55.9904 213.466L57.7278 211.706L51.3584 205.435L53.8398 202.912Z" fill="#236840"/>
<path d="M55.1119 200.037C54.3959 199.325 53.9159 198.783 53.9159 198.783C53.9159 198.783 52.5093 200.832 56.6346 205.007L61.1493 209.453L62.8853 207.689L55.1119 200.037Z" fill="#236840"/>
<path d="M92.0638 238.748L93.3758 234.962L101.82 237.891L102.632 235.555L94.1878 232.626L95.3451 229.29C95.2091 229.22 95.0851 229.147 94.9651 229.072L94.8731 229.018C94.7638 228.947 94.6585 228.88 94.5625 228.807C94.5558 228.804 94.5491 228.8 94.5451 228.796C94.4371 228.72 94.3411 228.642 94.2478 228.563L94.2011 228.524C94.1105 228.45 94.0278 228.376 93.9505 228.303C93.3678 227.748 93.1385 227.286 93.1385 227.286L92.9105 227.943L92.7878 228.295L91.5958 231.727L90.7865 234.063L89.4745 237.848L88.6611 240.186L91.2545 241.084L100.764 244.386L101.577 242.05L92.0638 238.748Z" fill="#236840"/>
<path d="M95.1211 226.091C94.2424 225.777 93.6384 225.519 93.6384 225.519C93.6384 225.519 93.2491 227.973 98.7637 229.972L104.758 232.053L105.568 229.716L95.1211 226.091Z" fill="#236840"/>
<path d="M231.344 117.726L232.05 131.526L234.522 131.398L234.238 125.867L247.181 125.202L247.038 122.464L234.096 123.13L233.814 117.599L231.344 117.726Z" fill="#236840"/>
<path d="M204.505 199.425L204.428 199.508L203.979 200C203.979 200 204.593 200.34 205.152 200.019L215.871 209.857L217.727 207.839L206.36 197.404L204.505 199.425Z" fill="#236840"/>
<path d="M231.648 136.861L231.643 136.973L231.608 137.638C231.608 137.638 232.298 137.508 232.524 136.906L247.056 137.664L247.198 134.925L231.79 134.122L231.648 136.861Z" fill="#236840"/>
<path d="M215.635 185.267C215.635 185.267 218.763 191.316 223.242 196.905H223.239C216.506 194.467 209.771 193.46 209.771 193.46L208.13 195.752C208.13 195.752 215.943 197.129 224.19 199.829L225.035 198.648L225.47 198.039L225.473 198.04L226.318 196.859C221.103 189.927 217.274 182.973 217.274 182.973L215.635 185.267Z" fill="#236840"/>
<path d="M228.743 104.077C228.743 104.077 232.515 105.943 236.765 107.147C233.327 109.919 230.589 113.112 230.589 113.112L231.169 115.964C231.169 115.964 235.073 111.507 239.461 107.995L245.059 106.851L244.786 105.508L244.511 104.164L238.913 105.308C233.498 103.796 228.161 101.227 228.161 101.227L228.743 104.077Z" fill="#236840"/>
<path d="M233.816 149.365C232.879 149.18 232.448 147.834 232.683 146.637C232.915 145.469 233.444 144.178 234.986 142.397L232.828 140.828L232.111 140.309C231.886 140.886 232.111 141.357 232.216 141.532C231.279 142.722 230.574 144.241 230.244 145.905C229.57 149.3 230.822 151.909 233.479 152.437C238.904 153.513 238.742 144.858 241.924 145.489C242.992 145.701 243.503 147.185 243.219 148.614C242.898 150.236 241.675 152.185 239.968 153.466L242.094 155.088C243.876 153.756 245.224 151.574 245.706 149.152C246.364 145.822 245.198 143.028 242.344 142.461C236.878 141.354 236.91 149.98 233.816 149.365Z" fill="#236840"/>
<path d="M190.45 212.173C190.45 212.173 191.024 212.583 191.613 212.33L201.12 223.353L203.196 221.558L196.333 213.603L193.1 209.886L190.45 212.173Z" fill="#236840"/>
<path d="M199.725 204.173L207 212.605L207.757 213.485C207.757 213.485 206.721 212.659 204.597 212.359L204.598 212.358C200.918 211.878 197.236 210.995 195.06 210.422C195.788 211.867 197.265 213.81 200.112 214.478C202.637 214.987 206.164 215.578 209.874 215.797L211.881 214.069L201.802 202.381L199.725 204.173Z" fill="#236840"/>
<path d="M190.57 226.311C192.777 223.803 191.506 220.766 190.876 219.599L187.629 214.136L185.27 215.538L189.934 223.383C190.521 224.364 190.712 225.386 190.564 226.318L190.57 226.311Z" fill="#236840"/>
<path d="M192.811 223.533L192.806 223.528C192.75 227.081 188.436 229.171 188.436 229.171C186.466 230.219 184.158 229.616 182.928 227.549L178.264 219.704L175.915 221.101L180.579 228.945C182.682 232.481 186.262 233.323 189.882 231.171C192.462 229.633 193.652 227.395 193.346 224.947C193.194 224.073 192.811 223.533 192.811 223.533Z" fill="#236840"/>
<path d="M240.41 159.998H240.413C240.395 160.001 240.382 160.005 240.369 160.009C240.173 160.049 239.977 160.089 239.774 160.13C237.51 160.669 237.191 161.76 237.191 161.76C237.25 161.078 237.197 160.501 237.197 160.501C237.121 158.642 235.926 156.968 233.913 156.298C230.891 155.294 228.345 157.037 227.133 160.689L225.449 165.745V165.742C225.085 166.86 224.751 167.672 224.751 167.672C224.751 167.672 227.211 168.029 229.138 162.493L229.346 161.862L229.479 161.469C230.242 159.176 231.575 158.314 233.161 158.844C234.727 159.362 235.185 160.921 234.454 163.122L233.025 167.421L228.494 165.916C227.727 167.434 226.706 168.048 226.545 168.137L226.531 168.153L239.482 172.46L240.345 169.858L235.371 168.201L236.857 163.729C236.919 163.541 236.994 163.228 237.031 163.054C240.247 162.828 242.961 161.993 242.961 161.993L243.937 159.06C243.937 159.06 242.375 159.576 240.41 159.998Z" fill="#236840"/>
<path d="M230.971 184.509L227.389 182.709L231.403 174.723L229.195 173.613L225.179 181.598L222.027 180.014C221.939 180.139 221.849 180.254 221.762 180.365C221.738 180.39 221.718 180.418 221.695 180.443C221.61 180.542 221.529 180.641 221.443 180.726C221.442 180.731 221.438 180.735 221.433 180.742C221.339 180.837 221.251 180.925 221.163 181.006C221.147 181.022 221.133 181.035 221.115 181.047C221.031 181.127 220.945 181.201 220.865 181.265C220.235 181.771 219.75 181.937 219.75 181.937L220.37 182.251L220.705 182.419L223.949 184.049L226.161 185.159L229.738 186.961L231.947 188.071L233.179 185.619L237.703 176.623L235.494 175.514L230.971 184.509Z" fill="#236840"/>
<path d="M218.826 179.815C218.399 180.645 218.066 181.211 218.066 181.211C218.066 181.211 220.446 181.917 223.154 176.713L226.002 171.047L223.792 169.936L218.826 179.815Z" fill="#236840"/>
<path d="M111.514 187.131L106.848 189.131L107.994 191.355L110.008 190.793L109.994 199.309H113.401V187.131H111.514Z" fill="white"/>
<path d="M48.224 47.7204C47.9786 48.1924 47.7666 47.6591 47.7466 46.9124C47.7293 46.1564 47.688 45.4991 47.2173 44.8564C46.7573 44.2271 46.4146 44.0978 45.716 43.0351C45.0093 41.9711 42.4506 43.0724 41.984 44.5124C41.5066 45.9618 43.712 47.4458 45.0906 48.2604C46.4733 49.0751 47.316 50.8911 48.456 52.5658C49.5906 54.2391 48.9613 54.7578 48.3626 55.8258C47.776 56.8951 47.4333 56.4124 46.4413 55.5498C45.4533 54.6751 45.7066 55.2471 44.9346 54.5764C42.028 52.0458 41.5 50.6178 41.5 50.6178C41.5 50.6178 41.0986 49.4044 40.1786 49.6164C39.2546 49.8311 38.7733 48.9484 36.868 49.7724C34.968 50.5964 33.6066 53.3031 34.8933 55.3884C36.1786 57.4751 37.5973 57.1484 38.268 56.7098C38.9266 56.2671 41.5613 57.3964 42.176 57.9204C42.7893 58.4578 41.452 58.8764 41.1173 60.9471C40.7706 63.0178 42.1786 63.2324 43.0293 63.7844C43.9386 64.3751 44.2666 63.5431 44.748 63.4578C45.2306 63.3631 45.6506 63.5124 45.988 63.1351C46.3293 62.7458 46.6066 62.0351 46.9413 61.9164C47.2613 61.8058 48.5106 63.0244 48.2266 63.6138C47.9306 64.2018 46.7413 65.4444 47.5253 67.0684C48.6786 69.4618 50.8053 68.9284 51.7066 67.9124C52.6026 66.8804 51.992 65.2631 52.4453 65.3844C54.8066 66.0364 56 64.9351 56.2013 63.4204C56.4066 61.8911 54.6013 60.7151 53.7466 60.4618C52.8853 60.2191 52.548 59.8324 51.984 59.4378C51.4186 59.0551 50.5733 57.6404 50.4573 56.4111C50.3453 55.1724 50.876 54.9618 51.1666 55.2191C51.4506 55.4631 52.2693 56.4018 53.612 56.7378C54.968 57.0751 55.536 56.6124 55.8906 56.4631C56.2413 56.3244 56.196 57.3471 56.196 57.3471C56.196 57.3471 57.14 56.3178 57.6266 55.7764C58.0986 55.2191 58.752 54.1058 58.9573 53.5551C59.1613 52.9924 58.844 52.2684 58.06 51.8578C57.272 51.4551 56.5986 51.7178 56.1186 52.2004C55.6373 52.6844 54.2 54.7271 53.4546 54.2764C53.0413 54.0271 52.0546 52.2684 51.6546 51.2898C51.2626 50.3244 51.5826 49.6964 52.0813 48.5564C52.572 47.3938 53.54 46.5444 51.9946 45.5378C50.4506 44.5298 48.4666 47.2498 48.224 47.7204Z" fill="#236840"/>
<path d="M78.8268 43.4404C78.7281 43.5138 78.6361 43.5778 78.5468 43.6404C77.6535 44.2818 77.6921 44.6524 78.1881 45.1924C78.7361 45.7724 78.7428 46.0191 79.4415 46.2164C79.4415 46.2164 80.0321 46.1458 80.4535 45.8964C80.5415 45.8311 80.6401 45.7751 80.7241 45.7031C81.0321 45.4404 81.2455 45.0564 80.9308 44.2951C80.5415 43.3258 80.0095 42.6831 78.8268 43.4404Z" fill="#236840"/>
<path d="M77.8945 34.9054C77.9838 34.6854 78.0691 34.4747 78.0878 34.3307C78.1718 33.8427 78.9638 34.3147 78.8438 34.64C78.7891 34.7907 78.5638 35.0587 78.3158 35.304C78.0385 35.5974 77.7318 35.876 77.6585 35.9214C77.3331 36.1254 77.6518 35.4667 77.8945 34.9054ZM77.3145 24.1294C75.8865 24.7147 74.4425 26.6694 73.1825 28.9867C73.0105 29.2907 72.8411 29.6254 72.6785 29.964C71.8691 31.6494 71.0878 33.6467 70.1451 35.3627C69.8531 35.9027 69.5345 36.42 69.2118 36.8854C67.6211 39.12 67.4971 38.1587 67.1491 38.8934C66.8291 39.5387 66.7838 40.8667 67.2785 41.4054L67.3638 41.4867C67.4091 41.5147 67.4625 41.5507 67.5078 41.5787C67.6451 41.6347 68.8318 42.1334 69.3811 42.0294C69.9331 41.9387 69.6838 41.7587 70.3651 41.4867C71.0425 41.2134 71.0611 41.0107 71.7278 40.184C72.2051 39.6027 72.9985 35.24 73.1305 34.5494C73.2758 33.856 75.1598 30.5107 75.3145 30.6427C75.5065 30.8094 75.2838 31.1374 75.3745 31.8227C75.4051 32.008 75.3958 32.2494 75.3665 32.5107C75.3038 33.2547 75.1211 34.2467 75.2078 35.0307C75.3265 36.0747 75.1625 36.648 76.1585 38.2907C77.1598 39.9387 78.2718 38.136 78.3905 38.1014C78.5198 38.076 78.6425 38.192 79.0665 38.6827C79.5131 39.164 80.4345 40.62 80.7865 41.1134C81.3145 41.864 81.7785 42.4334 81.4825 42.7934C81.3545 42.9614 81.0678 43.2307 81.0758 43.5147C81.0865 43.8734 81.4398 44.24 81.7891 44.392C82.4251 44.6614 82.4918 45.236 83.2211 45.3574C83.9598 45.472 84.9651 44.196 84.6985 43.752C84.4171 43.312 83.5478 41.7187 83.2451 41.2107C82.9278 40.6947 82.7905 39.7187 82.8025 39.5534C82.8025 39.54 82.8665 39.4867 83.0331 39.772C83.1265 39.9187 83.2371 40.1094 83.3998 40.324C83.5918 40.58 83.8998 40.8254 84.3011 40.972C84.8545 41.1747 85.5638 41.1934 86.4131 40.788C87.8625 40.0894 87.7211 38.02 85.8505 37.936C83.9678 37.8614 83.1398 38.736 82.7718 39.2934C82.7371 39.3467 82.5705 39.46 82.5411 39.4894C82.3465 39.7414 81.2931 36.624 81.2478 36.0854C81.2091 35.5547 81.8331 35.3587 81.6891 34.6507C81.5411 33.9454 81.0198 33.6974 80.9718 33.3014C80.9158 32.8387 81.4105 32.1014 80.7838 31.0694C80.1625 30.0454 79.1771 30.364 78.1145 31.2387C77.5611 31.704 76.4651 34.9214 76.2931 34.6414C76.0891 34.3027 76.0065 33.744 76.0025 33.1147C75.9931 32.0147 76.1998 30.7374 76.3518 30.1947C76.5891 29.3574 78.0891 27.2667 79.2398 26.052C80.3798 24.8454 78.7371 23.5374 77.3145 24.1294Z" fill="#236840"/>
<path d="M72.1535 24.2101C72.1535 24.2101 72.5922 23.6207 73.0255 23.0247C73.4588 22.4301 73.4615 21.9647 73.0962 21.1967C72.7255 20.4367 71.3455 20.0167 69.9095 20.7461C68.4775 21.4714 68.6375 22.3661 69.4148 23.4821C70.1948 24.6141 71.5215 24.4127 72.1535 24.2101Z" fill="#236840"/>
<path d="M124.094 24.5798C123.424 24.6491 121.94 24.5624 120.718 24.3211C119.506 24.0851 117.984 23.2438 117.996 22.9651C118.01 22.6878 117.448 19.9624 117.412 19.6024C117.38 19.2531 119.343 18.2091 119.616 18.1011C119.879 17.9944 119.786 17.4531 119.603 16.8704C119.431 16.2958 117.904 16.1664 117.614 16.0344C117.323 15.9118 117.54 15.2451 117.482 14.7771C117.15 12.1331 118.243 11.7131 118.03 10.7398C117.816 9.76511 116.567 10.0878 116.039 10.3824C115.511 10.6771 115.319 10.7371 115.376 11.2451C115.419 11.7544 115.408 12.0424 115.463 12.5518C115.511 13.0611 115.731 16.3878 115.792 16.9358C115.848 17.4944 115.812 17.1758 115.234 18.1118C114.648 19.0518 111.586 21.7518 111.095 22.0798C110.614 22.4051 110.543 20.1771 110.736 19.3611C110.935 18.5478 112.044 17.3251 112.938 17.0664C113.824 16.8198 114.086 16.2344 113.919 15.7798C113.796 15.4384 111.954 14.9731 111.562 14.6571C111.168 14.3424 111.168 14.3424 111.042 13.8291C110.903 13.3291 110.751 10.4411 110.719 10.0824C110.676 9.73444 109.735 9.14644 109.008 9.02377C108.28 8.90244 106.843 10.0798 106.831 10.6424C106.803 11.1971 106.502 11.7918 106.9 12.5851C107.303 13.3864 107.738 14.9264 107.87 16.2331C108.01 17.5278 107.283 18.2824 106.402 19.0078C105.516 19.7331 105.86 19.5798 104.856 20.2798C103.852 20.9798 101.384 21.4464 101.732 22.0358C102.886 23.9451 104.238 23.6504 104.599 23.6158C104.955 23.5718 105.5 23.4371 105.952 23.1584C106.399 22.8718 106.979 22.3304 107.219 22.3531C107.455 22.3638 107.179 23.1451 107.098 23.9158C107.012 24.6784 105.407 27.6251 103.903 29.3371C103.015 30.3464 103.576 30.8411 104.792 31.0051C106 31.1598 107.711 28.3944 107.727 28.0758C107.732 27.7584 108.034 27.6024 108.12 27.7184C108.215 27.8304 108.436 30.3918 108.539 30.9824C108.63 31.5651 108.586 31.4518 108.875 31.9424C109.16 32.4318 109.598 32.8198 110.638 32.8758C111.679 32.9331 111.503 31.9224 111.258 31.1491C111.023 30.3731 110.55 26.4744 110.539 26.0371C110.54 25.5998 110.604 25.0358 110.866 24.9291C111.13 24.8238 111.87 24.9438 112.178 24.9184C112.5 24.8838 112.72 23.6224 112.682 23.1931C112.602 22.2091 115.503 20.3504 115.528 20.6291C115.559 20.9091 115.559 21.3851 115.54 21.9411C115.5 23.2238 114.104 25.8291 113.927 26.4478C113.75 27.0664 111.911 28.1651 111.651 28.7104C111.387 29.2544 111.586 29.6704 111.866 30.0811C112.144 30.4904 112.792 30.2224 113.04 29.8451C113.286 29.4571 113.62 28.8678 113.883 28.3224C114.144 27.7784 114.375 27.3224 114.711 26.7331C115.052 26.1318 115.955 23.5398 116.298 26.2864C116.411 27.1918 116.491 29.2944 116.64 30.7918C116.792 32.2878 117.606 32.8104 118.115 33.1918C118.634 33.5824 119.387 32.7438 119.311 31.9531C119.228 31.1651 118.36 27.6718 118.251 27.0504C118.131 26.3718 117.892 25.9011 118.394 25.7664C118.898 25.6384 119.443 26.6051 120.483 26.6531C121.523 26.7091 123.742 26.1011 124.078 25.5811C124.43 25.0424 125.142 25.1131 125.383 24.6464C125.611 24.1811 124.763 24.5104 124.094 24.5798Z" fill="#236840"/>
<path d="M150.775 23.5544C150.502 23.9931 149.08 26.2118 148.95 26.4438C148.806 26.6824 148.614 26.7518 148.552 26.4838C148.474 26.1504 147.696 25.6291 147.584 25.4331C147.47 25.2184 148.544 22.9264 148.784 22.6784C148.82 22.6451 148.859 22.6224 148.914 22.6051C149.32 22.4411 150.354 22.4771 150.666 22.6158C151.024 22.7758 151.05 23.1064 150.775 23.5544ZM147.796 29.3678C147.703 29.4091 147.484 29.3971 147.288 29.3824C147.095 29.3571 146.93 29.3384 146.93 29.3384C146.864 28.9131 146.92 28.5918 146.97 28.2678C147.015 27.9424 147.222 27.6131 147.576 27.4891C147.634 27.4718 147.698 27.4544 147.755 27.4371C148.042 27.3811 148.303 27.4318 148.258 27.7478C148.199 28.1198 147.99 29.2998 147.796 29.3678ZM145.671 24.4504C145.638 24.4424 145.61 24.4451 145.579 24.4398C145.44 24.4064 145.306 24.3011 145.4 23.8718C145.48 23.4918 145.914 23.6158 145.974 23.6211C146.194 23.6624 145.867 24.4558 145.671 24.4504ZM156.875 9.88778C155.639 9.62111 154.607 10.6438 154.504 11.2904C154.4 11.9478 154.039 12.4811 153.803 13.1584C153.57 13.8371 153.152 14.5144 153.152 14.5144C153.152 14.5144 153.726 14.0118 154.099 13.5864C154.468 13.1598 154.7 12.9651 154.895 13.2518C155.079 13.5384 153.406 17.8891 152.998 18.4851C152.602 19.0918 151.515 21.1304 151.191 21.3878C150.866 21.6464 150.276 21.8304 149.634 21.7078C149.432 21.6704 149.278 21.6224 149.167 21.5531C148.899 21.3958 148.847 21.1411 148.915 20.6758C149.026 19.9984 149.511 17.4078 149.815 16.9238C150.09 16.4771 150.122 16.2624 150.492 16.0264C150.527 16.0051 150.58 15.9744 150.63 15.9438C151.136 15.6664 152.056 15.1944 152.322 14.9224C152.592 14.6638 152.719 14.3678 152.855 14.0118C152.982 13.6438 153.008 12.9784 152.474 12.1784C152.086 11.6131 151.306 11.1851 151.084 11.0171C150.554 10.6171 149.503 10.6158 148.811 10.9544C148.495 11.0984 148.251 11.3238 148.182 11.6211C148.043 12.1038 148.194 12.5264 148.359 12.8398C148.52 13.1091 148.682 13.3051 148.72 13.3984C148.791 13.5824 148.747 13.8558 148.615 14.3691C148.486 14.8944 147.063 20.4078 147.019 20.7131C146.967 21.0144 146.862 21.3571 146.616 21.6438C146.516 21.7571 146.366 21.8478 146.187 21.9091C145.899 22.0171 145.558 22.0824 145.299 22.1478C144.828 22.2758 142.523 22.0051 142.467 22.3291C142.418 22.6518 142.047 23.4558 142.59 24.7398C143.135 26.0238 143.98 26.1544 144.398 26.1291C144.712 26.1198 144.962 26.0531 145.123 26.3344C145.178 26.4198 145.223 26.5464 145.251 26.7211C145.38 27.4451 145.02 29.1278 145.18 29.5998C145.383 30.1998 142.97 29.4584 142.11 29.4518C141.243 29.4424 141.236 31.5718 141.572 32.0931C142.11 32.9144 142.864 33.0438 143.532 32.9624C144.076 32.8931 144.554 32.6931 144.807 32.5971C145.154 32.4584 145.863 32.2651 146.59 32.2504C147.071 32.2291 151.792 32.6704 152.207 32.8104C152.615 32.9504 153.528 32.7171 153.947 31.9864C154.371 31.2598 153.878 29.9558 153.054 29.8518C152.23 29.7504 148.816 29.6051 148.858 29.3518C148.898 29.0998 150.09 26.9798 150.511 26.4091C150.932 25.8291 152.248 25.9864 152.755 26.0144C153.262 26.0424 153.363 26.0544 153.859 25.8278C154.359 25.5998 154.918 25.2731 155.288 25.0478C155.544 24.8878 156.296 24.2491 156.512 23.4411L156.534 23.3424C156.599 23.0318 156.59 22.7144 156.436 22.3851C155.903 21.1238 153.318 21.0491 152.863 21.1931C152.412 21.3238 152.734 21.0344 153.01 20.5971C153.284 20.1491 156.51 14.2171 156.91 13.8198C157.3 13.4198 157.698 13.0238 158.406 12.7424C159.112 12.4704 159.028 12.0198 159.082 11.5398C159.123 11.0664 158.112 10.1624 156.875 9.88778Z" fill="#236840"/>
<path d="M203.605 63.1821C203.171 63.4474 202.285 63.2261 202.113 63.1367C202.044 63.0967 201.989 63.0354 201.972 62.9714C201.9 62.5154 202.812 62.6687 203.065 62.5514C203.511 62.2501 204.2 62.4341 204.316 62.5487C204.369 62.6101 204.401 62.6741 204.397 62.7487C204.384 62.9834 203.887 63.0114 203.605 63.1821ZM209.156 63.4954C208.723 63.0127 207.553 61.8981 207.393 61.7354C207.073 61.4061 207.247 60.8621 207.519 60.5207C208.027 59.8754 209.549 59.6981 210.119 59.5834C210.845 59.4367 210.973 59.0341 210.981 59.0207C211.109 58.7181 210.409 57.9261 209.969 57.7114C209.535 57.4967 209.544 57.5221 208.924 57.1381C208.311 56.7634 208.443 56.6541 208.205 56.5954C207.976 56.5594 207.3 56.8621 207.203 57.1927C207.111 57.5247 207.265 57.7034 207.475 57.9394C207.685 58.1647 208.479 58.2221 208.665 58.3181C208.84 58.4207 209.032 58.8221 208.544 58.8674C208.047 58.9247 207.133 59.1701 206.647 59.6421C206.444 59.8407 206.293 60.0994 206.177 60.3514C205.971 60.7754 205.877 61.1047 205.877 61.1047C205.877 61.1047 205.281 60.7661 204.815 60.7341C204.467 60.7101 201.395 60.4327 201.084 60.6114C200.768 60.7954 200.096 61.8181 200.059 61.9861C199.999 62.1741 199.961 62.4421 199.917 62.8327C199.88 63.1594 200.075 64.2821 200.133 64.5501C200.22 65.0634 200.809 65.2914 202.164 64.8247C202.451 64.7514 203.567 64.6434 203.869 64.5394C204.648 64.2727 205.68 63.5301 205.68 63.5301C205.68 63.5301 206.864 63.7514 208.481 65.3687C208.923 65.8101 209.255 64.9234 209.52 64.6234C209.795 64.3287 209.615 63.9741 209.156 63.4954Z" fill="#236840"/>
<path d="M212.932 54.3186C212.93 54.2693 212.932 54.2346 212.958 54.1893C213.054 53.9573 214.502 53.2373 215.082 52.764C215.68 52.2893 216.96 51.92 217.164 52.0866C217.366 52.24 216.436 53.1133 216.35 53.2866C216.222 53.5013 216.016 54.5586 215.679 54.624C215.332 54.6946 212.912 54.996 212.932 54.3186ZM213.312 51.0373C213.007 51.304 212.226 51.6813 212.226 51.6813C212.263 51.4906 212.268 51.3773 212.327 51.276C212.388 51.1866 212.487 51.0973 212.672 50.9653C213.102 50.6533 213.372 50.6173 213.544 50.572C213.69 50.5306 213.619 50.7493 213.352 51.0026C213.347 51.0173 213.323 51.0213 213.312 51.0373ZM218.596 60.1933C218.81 59.9013 218.516 59.3933 218.082 58.872C217.85 58.596 216.68 57.4026 215.719 56.7906C214.743 56.1706 213.848 55.552 213.496 55.4266C213.142 55.3 213.596 55.2626 213.984 55.3333C214.38 55.3986 215.959 55.7133 216.151 55.94C216.358 56.1666 217.299 56.4426 217.835 56.2866C218.35 56.124 218.535 54.84 218.531 54.3746C218.515 53.9026 218.679 53.8306 219.195 53.4773C219.924 52.98 220.45 52.936 221 52.9453C221.559 52.9666 224.398 53.4333 224.751 53.3893C225.119 53.3386 225.174 52.908 225.03 52.7C224.882 52.496 224.58 51.9293 224.42 51.74C224.256 51.5386 224.828 50.7 224.994 50.4013C225.282 49.8826 224.795 49.524 224.415 49.16C224.027 48.8 223.868 49.0733 223.338 49.192C222.822 49.3186 221.487 50.1373 221.012 50.3253C220.535 50.5146 218.187 51.0666 217.475 51.148C216.787 51.2226 215.576 51.46 215.683 51.3466C215.784 51.2213 216.179 51.14 216.55 50.884C216.919 50.6226 218.915 49.7226 219.826 49.4573C220.052 49.396 220.24 49.272 220.384 49.1226C220.795 48.6973 220.811 48.02 220.444 47.6053C219.966 47.0586 219.351 46.8586 218.93 46.8346C218.504 46.8 217.763 46.9133 217.62 47.236C217.472 47.5653 217.718 47.9293 217.794 48.1266C217.862 48.3306 217.748 48.2733 217.368 48.5973C216.982 48.9306 216.919 48.924 216.556 49.168C216.206 49.4093 216.872 48.3866 217.127 47.868C217.378 47.3466 217.199 47.2733 217.087 46.6653C216.964 46.076 216.76 45.5813 216.007 45.096C215.67 44.8813 215.396 44.772 215.14 44.8266L215.107 44.836C214.824 44.9226 214.562 45.224 214.232 45.8146C213.6 46.976 212.602 48.048 211.682 48.7226C210.754 49.3826 209.608 49.984 208.948 50.7106C208.403 51.284 208.42 51.72 208.627 52.2626C208.686 52.396 208.747 52.536 208.826 52.688C209.071 53.1973 209.904 53.108 210.155 53.0906C210.407 53.0693 210.582 52.8173 210.775 52.656C210.96 52.4853 211.199 52.6413 211.158 52.8973C211.096 53.132 210.918 53.7786 210.782 53.876C210.516 54.06 210.055 54.3533 209.626 54.1626C209.182 53.9733 207.416 53.088 206.8 52.752C206.559 52.62 206.342 52.496 206.203 52.3973C205.692 52.044 205.851 51.7693 205.587 51.46C205.326 51.164 204.616 50.5693 204.11 50.548C203.623 50.508 202.608 50.5653 202.192 51.524C201.475 53.1893 203.447 53.5866 203.447 53.5866C204.671 53.7413 211.124 55.6106 211.432 55.6226C211.783 55.652 212.208 55.648 212.639 55.7026C213.646 55.788 216.215 57.888 216.291 57.9706C216.918 58.6626 216.863 58.892 215.47 59.0226C214.515 59.1053 213.219 58.84 212.5 58.6626C212.163 58.584 211.95 58.5173 211.95 58.5173C212.055 58.5906 212.158 58.6573 212.263 58.728C212.991 59.172 213.822 59.4853 214.682 59.78C214.964 59.876 215.26 59.9826 215.56 60.0853C216.85 60.524 218.287 60.64 218.596 60.1933Z" fill="#236840"/>
<path d="M187.862 48.9085C187.69 48.6725 187.19 48.6592 186.663 48.2032C186.121 47.7472 184.334 45.3259 183.943 44.1872C183.557 43.0365 182.309 38.8872 182.273 38.5965C182.23 38.2939 182.314 38.0872 182.497 37.5645C182.667 37.0512 182.914 36.6579 183.502 35.9699C184.097 35.2819 185.054 34.8619 185.957 35.2072C186.871 35.5592 188.177 36.2485 188.458 36.4512C188.751 36.6472 188.703 36.6112 189.001 36.5859C189.299 36.5419 189.318 36.4859 189.643 36.3885C189.991 36.2925 190.086 36.1512 190.007 35.9379C189.938 35.7432 189.833 35.5125 189.545 34.7472C189.259 33.9819 188.667 33.5965 188.391 33.5579C188.111 33.5192 187.605 33.0632 187.205 32.6179C186.818 32.1859 187.718 31.0125 188.091 30.4805C188.462 29.9485 189.717 29.2085 190.179 28.9725C190.707 28.7072 191.593 28.1939 192.102 27.5912C192.713 26.8699 192.901 26.4739 192.826 25.7819C192.759 25.1685 192.319 24.8245 191.854 24.5325C191.398 24.2499 190.179 23.8552 189.682 23.9899C189.201 24.1419 188.999 24.8179 188.998 25.4299C189.009 26.0339 189.155 26.3139 188.877 26.7045C188.613 27.0979 188.054 27.7285 187.75 28.0752C187.459 28.4179 186.33 29.8832 185.619 30.5979C184.895 31.3272 183.215 32.7445 182.715 32.5885C182.223 32.4259 181.882 32.3085 180.849 31.5165C179.826 30.7259 178.989 31.1965 178.69 31.6352C178.39 32.0565 177.995 32.5952 178.091 32.9419C178.197 33.2792 178.485 33.2939 178.707 33.4845C179.363 33.8765 180.015 34.8445 180.102 35.1232C180.186 35.3845 179.527 35.8619 179.402 35.9499C179.275 36.0472 176.699 37.9979 176.395 38.1805C176.086 38.3539 172.567 40.0405 171.595 40.0459C170.626 40.0445 170.723 39.7792 170.423 39.2112C170.118 38.6419 169.498 38.5019 169.19 38.6272C168.89 38.7592 168.819 39.0339 168.638 39.3419C168.463 39.6419 168.25 39.9325 168.341 40.2365C168.954 42.1912 171.907 42.2792 172.609 42.2752C176.258 42.2579 179.85 37.8299 180.667 38.3552C181.317 38.7725 181.255 39.5872 181.333 39.9499C181.419 40.3032 181.557 44.6352 181.769 45.7245C181.989 46.8059 182.223 47.8765 182.725 48.2139C183.214 48.5499 184.987 48.8872 185.29 49.0512C185.606 49.2005 185.659 49.3525 185.973 49.4525C186.303 49.5525 187.173 49.3752 187.655 49.3459C188.139 49.3019 188.033 49.1459 187.862 48.9085Z" fill="#236840"/>
</svg>
